<?xml version="1.0" standalone="no"?>
<!DOCTYPE svg PUBLIC "-//W3C//DTD SVG 20010904//EN"
 "http://www.w3.org/TR/2001/REC-SVG-20010904/DTD/svg10.dtd">
<svg version="1.0" xmlns="http://www.w3.org/2000/svg"
 width="128.000000pt" height="128.000000pt" viewBox="0 0 128.000000 128.000000"
 preserveAspectRatio="xMidYMid meet">

<g transform="translate(0.000000,128.000000) scale(0.100000,-0.100000)"
fill="#000000" stroke="none">
<path d="M520 1200 l0 -80 40 0 40 0 0 80 0 80 -40 0 -40 0 0 -80z"/>
<path d="M852 1269 c-45 -13 -108 -80 -121 -126 -6 -21 -11 -62 -11 -91 0 -39
-3 -52 -12 -48 -142 59 -276 38 -373 -59 -65 -65 -89 -125 -89 -225 0 -73 4
-92 26 -136 39 -75 70 -107 136 -142 68 -36 153 -49 220 -34 23 5 42 9 42 8 0
0 -7 -23 -15 -50 -32 -106 -8 -203 70 -281 136 -138 355 -101 447 75 44 86 27
227 -38 300 -10 12 -14 89 -16 350 -3 333 -3 335 -27 373 -47 76 -151 113
-239 86z m152 -108 l31 -31 3 -341 3 -340 33 -44 c77 -101 48 -247 -60 -301
-60 -29 -150 -26 -201 8 -100 66 -121 196 -48 293 l34 44 3 340 3 339 25 27
c33 36 57 46 104 41 27 -3 49 -14 70 -35z m-373 -213 c19 -6 46 -20 62 -30
l27 -19 0 -179 0 -179 -27 -19 c-97 -67 -211 -54 -298 33 -102 101 -102 229 0
330 69 70 152 92 236 63z"/>
<path d="M880 720 l0 -320 -37 -34 c-34 -31 -38 -39 -38 -85 0 -44 4 -55 33
-83 28 -28 39 -33 82 -33 43 0 54 5 82 33 29 28 33 39 33 83 0 46 -4 54 -37
85 l-38 34 0 320 0 320 -40 0 -40 0 0 -320z m70 -415 c15 -18 10 -45 -12 -59
-35 -22 -74 27 -48 59 16 19 44 19 60 0z"/>
<path d="M160 1115 l-24 -26 57 -57 57 -57 27 28 27 27 -54 55 c-30 30 -57 55
-60 55 -4 0 -17 -11 -30 -25z"/>
<path d="M0 720 l0 -40 80 0 80 0 0 40 0 40 -80 0 -80 0 0 -40z"/>
<path d="M190 405 l-54 -55 27 -27 27 -28 57 57 57 57 -24 26 c-13 14 -26 25
-30 25 -3 0 -30 -25 -60 -55z"/>
<path d="M520 240 l0 -80 40 0 40 0 0 80 0 80 -40 0 -40 0 0 -80z"/>
</g>
</svg>
